<svg xmlns="http://www.w3.org/2000/svg" viewBox="0 0 64 64" role="img" aria-label="S favicon">
  <defs>
    <linearGradient id="bg" x1="0" y1="0" x2="1" y2="1">
      <stop offset="0%" stop-color="#0f766e"/>
      <stop offset="100%" stop-color="#0f172a"/>
    </linearGradient>
    <linearGradient id="shine" x1="0" y1="0" x2="1" y2="0">
      <stop offset="0%" stop-color="#f0fdfa"/>
      <stop offset="100%" stop-color="#99f6e4"/>
    </linearGradient>
  </defs>
  <rect x="4" y="4" width="56" height="56" rx="16" fill="url(#bg)"/>
  <path d="M41.9 19.2c-1.7-2.1-4.8-3.4-8.7-3.4-5.8 0-10 2.8-10 7.4 0 4.2 3.2 5.9 8.3 6.8l3.1.6c2.5.5 3.7 1.2 3.7 2.8 0 2-2 3.2-5 3.2-3.1 0-5.4-1-7.2-3.1l-4.4 3.6c2.4 3 6.3 4.7 11.4 4.7 6.4 0 10.8-3.1 10.8-8.1 0-4.4-2.9-6.2-8.7-7.3l-3-.5c-2.4-.4-3.4-1.1-3.4-2.5 0-1.8 1.7-2.9 4.4-2.9 2.7 0 4.6.8 5.8 2.3z" fill="url(#shine)"/>
</svg>